<svg xmlns="http://www.w3.org/2000/svg" viewBox="-2.9 57.6 238.2 250.7"><g fill="#000"><path d="M32.6 97.62c3.59-3.33 9.11-3.52 13.37-1.53 6.42 4.66 7.82 13.26 7.97 20.67 1.49-.14 2.99-.28 4.48-.44 1.12-.92 1.91-2.72 3.6-2.64 3.74-.33 7.63-.54 11.27.59.23-4.94.52-10.86 5.01-13.94 5.02-2.14 11.88-3.05 16.08 1.22 4.27 3.17 3.64 9.27 2.18 13.75.87 2.26 1.99 4.42 3.51 6.31 5.99-.31 11.97.49 17.92 1.16 5 .39 10.05.45 15.01 1.28.31.24.94.73 1.25.98-9.02.88-17.97-1.45-26.98-1.67 3.45 2.73 8.11 2.37 11.98 4.2 4 .67 8.15.1 12.17.84l1.28-1.16c.21 1.46.29 2.95.69 4.38 1.81 2.32 5.26 3.93 5.09 7.34-.08 7.11-6.18 12-11.62 15.59 1.22-1.72 2.54-3.37 3.85-5.02a32.2 32.2 0 00-7.72-7.42c-2.8-1.84-6.21-2.13-9.29-3.27 2.63-.23 5.27-.05 7.9.07-.2-3.12-.68-6.4-2.7-8.93-1.22-2.09-3.87-2.18-5.94-2.86-2.31-.42-4.32-1.66-6.4-2.66-2.35-1.17-5.07-1.07-7.55-1.84-1.64-1.94-2.95-4.25-3.57-6.73.23-3.22 1.55-6.51.39-9.7-1.51-3.84-5.57-7.04-9.85-6.27-3.22.62-7.53.83-8.58 4.63-3.78 6.4-1.55 13.7-.93 20.56l1.24-.65c.25 1.04.5 2.08.74 3.11-1.3-1.27-2.64-2.5-3.92-3.79-.93 2.44-2.75 4.32-4.53 6.15-.39 3.98.57 7.79 2.09 11.43-2.81-2.7-4.11-6.51-3.92-10.36-.37-3.15 4.1-4.42 3.65-7.62.53.2 1.59.6 2.11.79-.26-2.48-.51-4.95-.69-7.44-2.95-1.1-6.13-1.43-9.26-1.28-2.55-.34-3.32 3.26-5.85 2.98-4.69.33-9.32-.83-14-.66-.43.26-1.3.78-1.73 1.04l.73 1.32c5.19.96 10.53.93 15.8 1.02-.05 2.27-.37 4.61.52 6.77 1.78 5.15 1.4 10.69 1.24 16.04-.18 3.49 1.39 6.7 2.69 9.84 1.66 3.76 5.21 6.08 7.87 9.05 3.57-1.55 6.46-4.16 9.34-6.7-1.91-1.85-3.95-3.68-5.14-6.11-.67-2.61-.34-5.35-.45-8.02 1.83-1.92 3.24-4.38 5.76-5.49-.84 2.25-2.07 4.32-3.6 6.17.03 2.14-.19 4.29.14 6.41.89 3.13 3.76 5.05 6.05 7.1-.05-.73-.14-2.2-.19-2.93 1.37.41 2.75.82 4.12 1.26-1.28.74-2.57 1.45-3.81 2.23.92 1.81.68 3.84 1.03 5.77 1.67 2.58 4.95 3.58 6.43 6.3 2.03 3.55 5.81 5.5 8.57 8.4 7.36-.01 15.8-.36 21.06-6.29.46-3.49.06-7.05-1.1-10.36-2.84-3.37-5.91-6.75-6.96-11.18l-2.64-1.26c.57-1.39 1.16-2.76 1.88-4.07 2.46 3.53 3.05 8.05 5.84 11.39 2.25 3.13 6.19 4.42 8.48 7.52 1.77 2.49 4.67 3.65 7.22 5.12 2.85-2.21 4.45-5.49 6.58-8.31 5.14-6.76 7.54-15.29 8.15-23.68.99-2.34.81-4.82-.07-7.16 1.33 1.29 2.59 2.99 4.73 2.7.61-1.03 1.19-2.13.86-3.36-.76.43-2.28 1.28-3.04 1.71-.6-1.99-.97-4.06-2.03-5.87-3.42-.2-6.82-.55-10.2-1.06-1.27 1.48-2.5 3-3.85 4.4.51-1.79.97-3.65 2.05-5.2 1.64-2.08 4.3-.5 6.45-.45 3.52.44 8.57.32 9.51 4.72.57.29 1.71.89 2.27 1.18.6-7.34 2.68-14.98 7.4-20.78 3.89-5.04 12-5.65 16.94-2 5.52 5.78 7.17 14.16 7.56 21.89 4.7.61 9.78-.34 14.22 1.48-.58.87-1.16 1.73-1.75 2.59l-.68-2.21c-.12.84-.35 2.53-.47 3.37 1.04-.84 2.08-1.68 3.14-2.5-.29 1.12-.85 3.35-1.14 4.47-4.75.53-9.59-.55-14.37-.6.12 7.27-2.69 14.98-7.88 20.18-3.37 3.56-8.47 2.33-12.8 2.96-8.01-4.81-10.08-15.13-10.04-23.78 1.05-5.2-1.11-.21-1.78.72-.98.09-1.97.19-2.95.28.2 9.51-2.35 19.49-8.86 26.67-2.81 3.16-4.32 7.52-8.3 9.5-4.8-1.34-8.22-5.02-11.58-8.46 1.25 3.49 1.52 7.17 2.08 10.8-.49-.03-1.47-.08-1.96-.11-.85 1.17-2.2 2.1-2.5 3.6 2.42.34 3.72-2.07 5.2-3.5l-.14 1.14c5.3.85 5.3 7.51 3.74 11.42.85 3.82 1.77 7.83.71 11.71-.79 2.3-2.23 4.29-3.5 6.33 1.39 2.61 3.69 5.5 2.43 8.6-1.15 3.44-2.39 6.87-3.12 10.44-.19 2.72-.16 5.56-1.77 7.92.09 3.25-2.72 4.95-4.98 6.72 2.15 7.41 1.67 15.63 5.76 22.4 1.6 3.2 3.4 6.47 3.71 10.09-1.15 5.71-6.6 8.65-9.82 13.01-3.79 6.42-12.41 9.57-19.44 7.11-2.32-.88-5.42-.83-6.73-3.32-1.01-2.57 1.29-4.33 2.77-6.01 1.81-2.27 4.76-3.15 6.67-5.29 2.85-3.14 4.68-7.03 6.32-10.9 1.06-6.24-2.56-11.5-5.12-16.8-1.87-6.92-7.33-12.52-7.68-19.9-.17-2.45-1.65-4.53-2.09-6.92.01-1.58.74-3.02 1.19-4.5-7.36-.59-14.75-.85-22.13-.69-4.09-1.28-9.29-2.44-10.97-6.94-1.38-3.42 1.12-6.69 2.12-9.85 2.77-6.88 10.79-8.42 17.06-10.53 1.1.68.88 2.07.1 2.91-6.02-.03-12.91 2.56-15.19 8.59-1.14 3.15-4.33 6.4-1.97 9.79.69 1.93 2.77 2.17 4.49 2.58 2.29 1.12 4.74 1.85 7.18 2.55 8.25-2.34 16.83 1.38 25.12-.62 2.94-.64 5.96-.44 8.94-.21 1.19 3.7 2.34 7.43 3.12 11.24-2.41 2.77-.28 6.41-1.66 9.5.83.98.88 1.8.16 2.44-1.1-.17-2.1-.59-2.99-1.24 2.44-3.23.15-7.47 2.5-10.69-.65-3.19-1.67-6.29-2.34-9.48-3.49-.97-7.04-.03-10.55.33-.64 2.38-1.97 4.98-.49 7.34 1.42 2.57 1.4 5.48 1.32 8.33 4.12 2.93 4.11 8.19 6.21 12.36 1.03 2.49 1.88 5.09 3.48 7.31 2.31 3.34 3.08 7.4 3.8 11.32-3.17 5.03-5.75 10.46-9.39 15.17-3.1 2.42-7.23 4.14-8.74 8.08 1.34 1.42 3.29 1.77 5.08 2.28-.29-1.08-.63-2.13-.91-3.21.19-.37.56-1.12.74-1.5l.2 2.64c1.43-1.41 2.54-5.76 5.44-4.17 2.57 1.11 5.99-.19 7.94 2.19-3.16.09-6.45.54-9.38-1-.69 1.65-3.66 3.73-1.3 5.29 4.52 1.51 9.8-.24 13.48-3.11 2.15-2.52 3.75-5.51 6.37-7.61 2.43-2.33 5.91-5.14 4.94-8.95-2.35-6.42-6.59-12.14-7.83-18.97-.68-4.19-1.55-8.36-2.27-12.54-1.28-.31-2.54-.67-3.79-1.1l2.84-2.36c-.43-1.3-.96-2.56-1.43-3.85 2.49.88 4.14 3.21 2.79 5.88 4.57-.35 5.86-5.21 6.73-8.93.04-4.59 1.49-8.97 3.43-13.08 1.37-2.58.32-5.48-.61-8.01-3.95-.56-7.87.26-11.79.7a61.247 61.247 0 01-21.84-6.04c-2.36-1.24-5.07-.24-7.51.2-4.54 1.42-9.33 2.76-14.1 1.61.12-.43.35-1.29.47-1.72.74.21 2.22.63 2.97.84 3.8-1.21 7.63-2.31 11.54-3.1-.79-2.41-1.34-5.1-3.64-6.58.35-.61.71-1.22 1.07-1.82l3.04 3.13c.21 1.63.46 3.26.76 4.88 5.15-.56 9.65 2.41 14.49 3.59.57-1.36 1.16-2.71 1.75-4.05-2.56-3.13-1.97-7.81-5.59-10.35 1.01 3.12 2.13 6.34 1.65 9.69-1.53-3.32-3.49-6.68-2.89-10.48-.92.71-1.76 1.51-2.53 2.38-4.21.1-8.92 1.48-12.76-.79 3.73-.92 7.56-1.19 11.39-.99l-.6-3.1c.06-2.96 3.66-3.63 5.26-5.65-4.76-3.4-7.45-8.74-11.91-12.42-2.46-2.17-1.49-5.76-2.06-8.61-2.78 4.09-6.41 8.24-11.78 8.35-3.18-1.56-4.87-4.98-6.96-7.68-5.42-8.01-3.07-18.2-5.79-27.04-.62-2.32-.38-4.75-.48-7.12l-2.62.4c-2.09 7.02-3.73 15.35-10.57 19.41-4.11 1.06-9.7 2.33-12.77-1.54-5.71-6.8-6.45-16.28-5.91-24.8-1.38-.42-3.73.63-4.28-1.19l.04-.63c1.12.02 3.35.08 4.46.11 1.15-6.07 2.74-12.59 7.37-17m-6.17 20.4c-.33 7.28.48 15.34 5.3 21.16 2.76 3.69 7.88 2.3 11.66 1.4 5.85-3.67 7.32-10.84 9.32-16.93-3.25-1.79-7.15-.77-10.54-2.03-1.44-1.83-.19-4.02.42-5.9 3.07.13 6.14.41 9.2.75.53-.44 1.07-.87 1.6-1.32-2.12-5.16-1.81-11.41-5.94-15.66-2.2-3.2-6.31-2.9-9.73-3.09-7.99 4-10.74 13.33-11.29 21.62m129.62 13.14c.2 7.18 1.19 15.14 6.14 20.72 3.16 3.82 8.56 2.08 12.67 1.3 6.88-4.05 8.42-12.71 10.11-19.86-4.11 0-8.23-.17-12.27-.97.24-2.21.62-4.39 1.23-6.53 3.98-.09 7.94.44 11.86 1.13-1.68-6.98-2.02-14.94-7.33-20.38-2.53-2.92-6.63-1.72-9.99-2.22-9.44 5.22-12.13 16.83-12.42 26.81m18.71-3.07c-.2.51-.61 1.52-.82 2.03l.64.59c7.15.6 14.32 1.05 21.48 1.51l.36-3.05c-7.24-.11-14.43-1.01-21.66-1.08m-53.98.9c2.09 3.27 3.24 7.01 3.62 10.86 2.87 2.48 5.61 5.1 7.97 8.08 2.17-2.75 4.56-6.12 3.74-9.82-2.12-2.46-4.82-4.69-5.34-8.11-3.29-.72-6.64-.98-9.99-1.01m-11.37 49.09c.63.48 1.26.96 1.9 1.44 2.15-1.05 4.54-1.71 6.45-3.17-2.84.28-5.42 1.95-8.35 1.73m-3.71 2.77c.78-.12 2.34-.38 3.12-.5.17-.47.52-1.39.69-1.86-4.08.78-8.17-.32-12.25.27-.19.66-.57 1.98-.76 2.65-1.16.28-2.31.57-3.46.87.11 1.03.22 2.06.34 3.1 3.97-1.09 6.69 1.98 9.71 3.85-.34 1.67-.69 3.34-1.04 5.01.99.54 1.99 1.1 2.98 1.67-1.17 1.64-2.33 3.31-3.4 5.03 3.5.62 6.87 1.77 10.32 2.59 3.95-.27 7.86-1.1 11.84-.87 2.23-4.37 3.06-9.3 2.2-14.15-2.41.1-4.67-.58-6.44-2.3.09.5.28 1.51.38 2.02-4.78-.66-9.06 2.02-13.18 4.01.41-.91.81-1.82 1.21-2.73 3.92-.98 7.79-2.32 11.41-4.12-1.81-1.41-2.85-3.45-3.78-5.47 1.15.14 2.3.3 3.46.46-.05 3.45 3.62 4.85 5.97 6.6.51-3.89 1.01-7.83 0-11.69-6 3.17-12.44 5.59-19.32 5.56z"/><path d="M36.22 100.24c.66-1.46 2.23-1.87 3.6-2.36-1.84 3.18-4.18 6.11-5.37 9.64-2.52 7.17-2.74 15.09-1.08 22.48.79 3.93 3.43 7.07 5.01 10.67-4.08-1.69-5.61-6.27-6.62-10.21-2.14-10.1-1.32-21.41 4.46-30.22zM164.18 114.15c1.54-3.2 2.77-7.54 6.82-8.18-8.12 9.95-9.98 23.74-7.08 36 .87 4.15 3.38 7.61 5.24 11.33-1.76-.96-3.58-2.13-4.36-4.07-5-10.96-4.83-23.9-.62-35.08zM10.18 114.44c2.03-3.36 6.02-.52 8.97-.45-.08.22-.25.68-.33.91-1.76 1.39-4.06.67-5.93-.07-.42.31-.83.63-1.24.97a17.02 17.02 0 012.07 5.14c-2.21-.98-5.31-3.91-3.54-6.5z"/><path d="M14.59 119.95c-1.23-.93 1.37-1.3 1.97-1.45 2.6-.1 5.19.21 7.79.32l.08 1.65c-3.27-.31-6.62-.06-9.84-.52zM86.45 124.4c2.22-1.41 3.97-3.54 6.49-4.49-.98 3.5-4.34 5.2-7.11 7.12-.99.85-2.25 1.25-3.52 1.46-4.81 1.49-8.06 6.37-8.28 11.31l-1.46-.1c.43-4.85 2.2-9.82 6.46-12.58.29-.24.87-.72 1.17-.96 2.07-.59 4.31-.74 6.25-1.76z"/><path d="M84.99 128.86c.83-.45 1.66-.89 2.51-1.32.87 1.25 1.73 2.53 2.52 3.84-1.72-.74-3.37-1.66-5.03-2.52zM93.98 133.17c4.47-.55 8.17-3.4 12.59-4.12-3.02 3.03-7.3 4.8-11.54 5.25-2.41.15-4.35 1.67-6.44 2.69 1.37-1.79 2.94-3.72 5.39-3.82zM79.91 132.25c3.16.24 6.29 1.66 7.34 4.88-2.78-1.06-5.19-2.87-7.34-4.88zM102.58 134.71c1.37.91 2.68 1.92 3.97 2.95 1.35.39 2.7.81 4.05 1.25-3.47 1.24-6.97-.71-8.02-4.2zM70.39 154.23c-1.59-5.33-.07-11.72 4.6-14.96-.51 3.46-2.81 6.32-3.23 9.78-.24 1.77-.6 3.54-1.37 5.18zM109.19 149.2c.46.73.91 1.46 1.36 2.2-4.53 6.2-13.86 7.56-20.16 3.48 4.16-.1 8.42.75 12.48-.52 2.52-1.12 4.5-3.14 6.32-5.16zM87.68 158.91c3.46.22 7.52-1.59 10.46.94 2.2 1.93 4.8 3.6 6.25 6.24-3.4-1.19-5.96-3.77-8.39-6.31-3.6-.42-6.96.78-10.15 2.28.6-1.06 1.21-2.11 1.83-3.15zM103.9 166.6c1.68.74 3.31 1.75 5.16 2.01 1.66-.39 3.26-1.01 4.9-1.45-1.1.78-2.25 1.5-3.41 2.19-2.34 1.26-4.76 3.62-7.62 2.54-3.04-.86-6.19-1.09-9.25-1.8 2.08-.3 4.16-.56 6.24-.85 1.96.6 3.96 1.11 6.01 1.25-.64-1.32-1.32-2.62-2.03-3.89zM98.44 181.58c2.94.11 5.77.88 8.65 1.4 2.25-.21 4.37-1.07 6.6-1.43-3.41 5.68-10.81 2.77-15.25.03zM78.56 204.35c6.08 2.56 12.77 2.38 19.19 1.74-2.5 2.61-6.33 2.24-9.64 2.25-3.52-.22-7.65-.54-9.55-3.99zM113.67 206.7c1.86 1 3.99 2.28 3.59 4.78-1.38-1.45-2.67-3-3.59-4.78zM102.07 227.78c-.84-2.2.71-4.33 1.64-6.22.24 1.79.38 3.59.52 5.39.4 1.44.72 2.9.95 4.39-1.15-1.09-2.3-2.2-3.11-3.56zM117 224.78c2.38 2.21.02 4.82-2.21 5.9.72-1.97 1.49-3.93 2.21-5.9zM105.54 235.23c1.11.92 2.21 1.86 3.31 2.8.94 4.85 3.35 9.27 4.15 14.15-4.02-4.84-5-11.3-7.46-16.95zM111.26 238.12c2.27.31 1.69 3.96 2.36 5.69-1.13-1.71-2.34-3.6-2.36-5.69zM118.89 260.33c1.41 2.04 2.31 4.37 3.23 6.66-.9 1.84-1.76 3.7-2.82 5.46.77-4.07.26-8.09-.41-12.12zM111.51 261.44c2.32 1.57 4.02 4.57 3.23 7.41-.67 3.2-1.04 6.49-2.28 9.54-1.05-4.56-.21-9.19 1.1-13.59-.77-1.07-1.45-2.19-2.05-3.36z"/></g></svg>