<svg xmlns="http://www.w3.org/2000/svg" viewBox="36.2 -9.6 204.1 283.2"><g fill="#000"><path d="M97.46 15.52c2.32-6.41 6.96-12.36 13.68-14.42 2.25-.22 4.51-.05 6.77-.1 4.58 2.39 5.52 7.81 4.35 12.45-.97-.81-2.9-1.24-2.36-2.86.8-3.16-.43-7.52-4.07-8.11-7.73.3-13.91 6.93-15.86 14.09-.79 1.95-.54 4.93-3.27 5.18.01.36.04 1.08.05 1.43 3.46-2.3 8.21-4.63 12.19-2.17 3.3 1.24 4.63 4.89 5.49 8l.14-.05c-.26-4.63 2.64-8.51 5.84-11.51-.83-.64-1.64-1.29-2.43-1.97-1.82.55-3.83.68-5.48 1.68-1.07 1.13-1.73 5.59-3.38 2.67-.03-1.21.01-2.41.11-3.62 2.68-1.59 5.66-2.71 8.77-3.01 1.63.41 2.62 1.96 3.87 2.97 2.88-2.15 6.43-3.93 10.13-3.24 3.56 1.21 6.15 4.48 6.62 8.21.44 5.61-2.02 10.88-5.19 15.35 4.09 7.09 5.67 15.31 5.31 23.45-.6 8.09 6.15 15 4.25 23.2-.73-1.27-1.57-2.54-1.74-4.04-1.25-5.46-3.17-10.74-5.41-15.87 1.44-7.16 1.57-15.19-2.33-21.64-.59-1.13-1.14-2.29-1.67-3.46-3.69 3.01-8.88 6.02-13.64 3.74-2.42-.84-3.47-3.32-4.54-5.41-2.18 7.08-7.33 13.47-14.47 15.95 2.31 5.3 2.32 11.1 3.09 16.72 6.93.07 13.5 4.64 15.97 11.07-.17 3.81-1.65 7.41-2.84 10.99 4.64-.98 6.43-6.11 10.09-8.71-1.71-5.14-2.15-10.7-.31-15.87-4.68-6.67-3.84-15.11-4.38-22.82.64-.32 1.93-.97 2.57-1.29 0 4.53-.45 9.07-.01 13.59.66 2.72 1.84 5.28 2.71 7.94.94-1.59 1.92-3.16 3.01-4.66 1.35 4.07-2.75 6.77-2.76 10.69-.12 5.73.38 11.82 3.22 16.93-.61.15-1.22.3-1.82.45-.38-.66-1.13-1.98-1.5-2.64-3.11 2.02-4.67 5.55-7.23 8.13l-2.09-.84c-.23-.22-.67-.67-.9-.89-.26.17-.8.52-1.06.7-2.27 1.38-5.14 0-7.42 1.3-.6 2.13-.88 4.33-1.33 6.49 3.37 1.06 6.99 2.06 9.6 4.6-.06.44-.17 1.31-.23 1.75-4.06-1.46-7.82-3.65-11.31-6.16.59-2.71 1.99-5.49 1.21-8.3-1.77-5.76-1.96-12.11-5.82-17.04-1.04-7.15.78-14.63-1.95-21.54-2.78-.17-5.85-.58-7.87-2.71-3.21-3.46-3.8-8.71-2.44-13.1 1.56-5.25 4.32-10.48 9.04-13.54-.97-.43-1.96-.81-2.95-1.19-.4-.47-1.2-1.41-1.61-1.88-2.26.91-4.5 1.87-6.74 2.84-.81 5.78 1.89 11.37.46 17.12-.51-1.78-1.03-3.56-1.54-5.34-3.16 1.04-6.52 3.1-9.92 1.82-4-1.42-5.53-6.26-5.24-10.15 1.26-9.83 8.97-19.32 19.15-20.57 5.16-.16 8.71 4.5 9.42 9.22M71.41 28.04c.27 2.48.76 5.84 3.43 6.82 3.1 1.35 6.13-.93 8.62-2.55-.53-2.86-1.04-5.72-1.65-8.56.85-.79 1.71-1.58 2.57-2.37 3.07-1.06 6.04-2.42 9.24-3.07.37-1.17.75-2.33 1.13-3.49-.84-1.92-1.44-4.07-3.06-5.52-2.13-1.35-4.69-.42-6.89.2-7.54 2.98-12.43 10.68-13.39 18.54m48.67-7.07c-2.95 3.57-3.62 8.35-6.25 12.13 1.42 2.5 2.65 5.4 5.19 6.96 3.02 1.83 6.49-.41 9.07-2.03 5.44-3.97 7.01-10.85 8.18-17.08-.52-2.45-2.15-4.95-4.41-6.13-4.63 0-8.97 2.57-11.78 6.15m-17.49 1.93c-7.03 2.19-11.37 9.07-13.01 15.92-1.69 4.05-.27 9.54 3.96 11.36 3.02 1.54 6.12-.7 8.78-1.99 6.09-4.01 7.84-11.39 9.43-18.03.64-2.68-1.37-5.03-3.06-6.86-1.49-2.07-4.11-.85-6.1-.4m2.14 57.93c1.15 3.1 1.02 6.92 3.36 9.42 2.13.51 4.35.49 6.52.75-2.02-4.27 2.58-9.14-.42-13.18-2.38-4.71-7.69-6.31-12.39-7.68-.79 3.95 2.21 7.01 2.93 10.69z"/><path d="M85.48 42.7c.55 3.04 2.54 6.14 1.14 9.22-1.82 4.51-.62 9.38-.56 14.07-.21 3.06 2.31 5.21 3.13 7.97-.36 3.42-1.62 6.66-2.05 10.06.27 4.54 2.57 8.63 3.55 13.03 1.26 2.35 3.21 4.3 4.54 6.63-2.14-.81-3.75-2.42-5.28-4.05-.17 6.12 2.71 11.84 7.42 15.63 4.08 6.03 9.94 11.8 17.57 12.44 6.94.26 10.96 6.57 15.32 11.07 1.89 1.58 2 4.04 1.97 6.33-3.52-3.89-6.12-8.62-10.26-11.95-5.65-3.89-12.85-3.86-18.76-7.24.24 4.7.74 9.38.97 14.08.02 10.63 2.95 21.14 2.69 31.73-7.95 4.96-16.25 9.44-24.68 13.54.43 2.4.19 5.1 1.4 7.3 1.56 1.32 3.17 3.12 5.28 3.37 5.16-2.79 10.29-5.69 15.21-8.89 1.54-1.13 3.42-1.59 5.24-2.09-5.61 6.35-13.57 9.67-20.71 13.9-3.08-1.43-6.21-3.32-7.86-6.4-.43-2.86-.23-5.77-.46-8.65 7.93-4.64 16.2-8.65 24.32-12.94-.94-14.57-2.56-29.11-2.79-43.74.28-.33.86-.98 1.14-1.31-2.68-2.32-4.7-5.23-6.69-8.13l.08-2.33c-2.7-.98-5.28-2.73-6.42-5.47-2.59-4.62-.56-10.11-2.16-14.97-.72-2.62-1.86-5.12-2.32-7.81-.23-2.74.42-5.45.67-8.17.67-4.18-2.14-7.81-2.52-11.88-.69-8.17 1.26-16.24 1.88-24.35zM140.96 82.2c.6.68 1.2 1.36 1.79 2.04-.38 3.42-.55 6.85-.62 10.28-.81-1.3-1.59-2.6-2.35-3.92.64-2.76.93-5.58 1.18-8.4z"/><path d="M135.47 88.64c1.9 1.02 3.45 2.49 4.36 4.47 5.42 3.26 10.6 8.28 11.72 14.77.36 5.54 7.2 7.44 8.03 12.78-3.69-2.21-6.41-5.72-9.22-8.9-.56-3.91-2.18-7.46-4.35-10.73-2.84 1.41-6.4 1.19-8.48-1.4 2.49.08 5.1.85 7.46-.33-2.33-1.79-5.07-2.98-7.38-4.76-.84-1.92-1.47-3.92-2.14-5.9zM118.83 103.55c3.84-5.07 9.91-7.86 15.69-10.11.26.43.8 1.29 1.06 1.72-2.93 1.14-6.14 1.71-8.72 3.62-2.64 1.66-4.89 4.06-8.03 4.77zM99.71 109.71c-.59-5.04-1.88-10.54.3-15.37.93 4.78.2 9.73 1.48 14.46-.6.3-1.19.6-1.78.91zM133.17 100.45c3.95 1.52 9.01 2.88 10.22 7.56.8 4.09 4.78 7.48 3.69 11.86-2.25-3.9-5-7.62-6.17-12.02-1.13-3.75-6.18-3.92-7.74-7.4zM125.87 113.07c.31-3.8 2.18-7.37 4.74-10.15-.21 2.11-1.03 4.08-1.81 6.03-.1 1.18-.19 2.37-.3 3.56.58.95 1.15 1.9 1.7 2.86-1.52-.61-3.11-1.16-4.33-2.3zM116.54 114.66c-.67-3.61-.19-7.75 3.62-9.34-.57 1.25-1.15 2.49-1.75 3.73-.18 1.99-.56 4.01-1.87 5.61zM105.53 110.33c4.41 1.35 7.77 4.62 11.77 6.75.39 2.4.61 4.82.66 7.25-2.04-2.7-3.58-5.79-6.07-8.13-2.1-1.98-4.38-3.77-6.36-5.87zM129.33 115.31c2.05.83 4.03 1.81 6 2.8-.72.5-1.42 1.04-2.19 1.46-1.52-1.17-2.76-2.67-3.81-4.26zM147.23 120.06c.85.3 1.71.59 2.57.89.84 1.21 1.71 2.39 2.57 3.6 2.98-1.67 6.18-2.94 9.51-3.64 2.8.91 5.54 1.99 8.3 3.01 2.24.78 2.3 3.47 2.59 5.41 6.96 1.23 14.06 2.1 20.83 4.26 2.1.46 3.09 2.42 3.89 4.21 1.89-.55 3.81-1.02 5.76-1.34.27.58.79 1.75 1.06 2.34 3.28 1.24 6.41 2.82 9.58 4.32 4.58 2.18 7.79 6.24 11.62 9.43 2.03 1.56 3.45 3.85 3.8 6.39.11 5.03-4.17 8.3-6.13 12.54-4.97 5.72-8.34 12.7-14.14 17.73 3.89 1.17 5.49 5.01 7.85 7.89 2.11 2.69 6.22 3.09 7.78 6.27-.09 2.11-.55 4.21-1.23 6.2-1.62 1.33-3.65 2-5.54 2.85-4.16-1.67-7.86-4.24-11.76-6.41.01-.21.02-.64.02-.85 3.61-.24 6.79 2.95 9.95 4.6 1.55-.42 3.14-.75 4.67-1.31.61-1.68.79-3.47 1.17-5.21-3.11-1.78-6.38-3.62-8.22-6.84-1.6-2.92-3.58-5.64-6.48-7.4 3.28-4.92 7.7-8.99 10.4-14.32 3.26-4.03 6.18-8.3 8.71-12.83 1.01-2.52.31-5.69-1.91-7.36-3.98-3.26-7.08-7.77-11.97-9.77-3.84-1.76-7.59-3.76-11.54-5.27-3.32.94-6.11 3.79-7.25 7.01-.36 4.35-.24 8.73-.14 13.09 5.02 1.32 10.09 3.4 15.37 2.92 3.86-.87 6.69 2.65 10.38 3.07-.7.6-1.4 1.19-2.11 1.79-1.72-.74-3.44-1.49-5.15-2.25-2.17 2.82-4.64 5.39-6.97 8.07-2.07 2.46-.92 5.99-2.27 8.73-.97 2.03-1.88 4.09-2.81 6.14-1.42 3.51-4.94 5.37-7.53 7.9.55.53 1.1 1.06 1.67 1.59 1.01-.2 3.04-.59 4.05-.78 2.5.83 5.09 1.48 7.39 2.78.41 2.79-.48 5.66-.6 8.48-4.63 4.54-10.2 8.01-15.72 11.37-8.18 5.56-16.29 11.25-23.99 17.45 1.79 3.24 2.03 7.41 5.07 9.85 2.61 2.19 6.29 3.07 8.01 6.24-3.31-1.27-6.78-2.52-9.44-4.95-5.19-4.51-7.13-11.41-9.12-17.73-1.37-3.85-.16-7.96 1.67-11.42 2.76-5.4 4.95-11.05 6.67-16.85 1.17-4.08 4.23-7.17 5.96-10.96 1.04-4.11-2.04-7.46-3.1-11.18-1.09-2.94-.39-6.19-1.41-9.14-1.53-3.01-3.99-6.1-7.59-6.49-5.75.47-10.47 4.88-12.83 9.93.01 2.73 2.23 4.89 3.7 7.04 3.14 3.46 5.32 7.62 7.31 11.83-5.15 2.84-7.04 8.78-8.93 13.96-2.53 6.37-.59 13.44-2.67 19.92-1.04 5.88-4.13 11.19-4.96 17.1 3.7 3.23 8.32 6.22 13.21 6.88-1.9-5.36-3.06-11-3.48-16.67.84.97 1.9 1.86 2.13 3.21 1.31 5.29 3.11 10.82 1.7 16.26 2.13 3.9 6.83 4.73 10.87 4.91 4.34.47 8.12-2.28 11.09-5.11-.4 1.18-.79 2.36-1.18 3.55-4.14 3.92-10.21 5.96-15.73 4.03-4.96-2.15-8.23-6.62-12.22-10.07-2.84-2.15-7.11-3.1-8.28-6.9-.34-3.64 1.8-6.86 2.96-10.18 3.54-8.17 1.82-17.26 3.35-25.81-8.19-4.78-15.85-10.4-24.01-15.22-4.8-3.04-10.41-5.17-14.21-9.53 3.97 1.44 7.46 3.84 11.18 5.77 9.71 4.96 19.33 10.24 28 16.87 1.43-3.22 2.39-6.69 4.68-9.46-.59.16-1.78.46-2.38.62-4.97-2.83-9.96-5.62-15.02-8.28-4.64-2.72-8.97-5.93-13.54-8.75.26-.84.53-1.67.85-2.48 9.04 6.51 19.69 10.67 28.14 18.08.88.17 1.75.32 2.64.45.79-2.12 3.34-4.17 2.24-6.58-1.99-4.92-6.31-8.43-8.24-13.4-.53 1.24-1.03 2.51-1.64 3.73-.68-1.08-1.09-2.31-.35-3.49 3.09-7.72 9.49-15.93 18.71-15.33.22-3.29.68-6.65 2.12-9.65 1.28-2.73 3.98-4.29 6.32-5.99 4.07-3.08 8.73-5.33 13.57-6.92 2.7-.04 4.82 1.89 6.54 3.74 1.05-1.39 2.15-2.73 3.26-4.07-7.36-3.95-15.5-6.11-23.77-7.07-2.96-.1-2.28-3.85-2.9-5.87-4.08-.74-8.33-2.45-12.42-.78-8.33 2.74-16.39 8.21-20.03 16.45-.41 1.32-1.54 2.64-1.08 4.08 1.56 3.24 3.31 6.39 4.57 9.76-1.81 6.65 1.42 13.24 3.87 19.29-4.09-1.8-4.39-6.73-7.57-9.42-4.3-4.11-8.18-8.65-11.71-13.44-3.28-4.35-7.75-7.58-11.3-11.68-1.62 4.72 1.77 9.45 1.44 14.33-.69.67-1.37 1.34-2.05 2.02-.29-5.57-1.61-11.02-1.75-16.61.34-.09 1.02-.27 1.35-.36-2.46-3.35-6.43-6-6.98-10.42 7.32 4.89 12.88 11.82 18.86 18.16 4.47 5.2 8.83 10.49 13.23 15.74-.13-2.42-.19-4.85-.02-7.27-1.91-3.36-2.52-7.28-4.72-10.51 2.07-3.5 3.29-7.54 6.04-10.62 3.17-3.73 7.43-6.26 11.51-8.87-.95-2.03-2.58-3.56-4.22-5.02m25.9 28.18c-4.03 2.2-4.76 7.29-5.8 11.33-.71 2.14 1.96 3.12 2.98 4.55 1.07-3.06 1.56-6.29 2.64-9.34 2.56-5.17 8.16-8.93 13.98-8.99-2.91 3.12-7.6 3.76-10.28 7.14-1.78 2.13-2.37 4.91-3.62 7.32-1.25 2.2-2.86 4.17-4.37 6.2 1.59 1.95 2.97 4.06 4.24 6.23 4.79-3.51 9.47-7.17 14.47-10.38 4.41-2.31 3.3-8.17 3.95-12.3-.21-3 .68-8.06-3.28-8.76-5.47.92-10.24 4.15-14.91 7m.54 25.97c.13 3.92.89 7.78 2.7 11.28 1.72 3.09 0 6.52-.83 9.62 1.97 3.48 3.93 7.15 7.2 9.6 4.14-1.84 8.03-4.25 11.62-7.02l-3.8.16c.27-2.36.84-4.84 2.96-6.22 5.09-3.89 7.72-10.31 8.3-16.54.49-4.51 4.75-7.14 7.39-10.42-5.63-.42-11.34-1.29-16.55-3.57-5.41 5.53-12.83 8.5-18.99 13.11m-.35 22.31c-1.13 2.73-1.99 5.56-3.09 8.3 2.29 2.57 4.47 5.25 6.77 7.82-.51.78-1.01 1.57-1.5 2.37-2.47-2.77-4.62-5.8-6.52-8.98-.8 2.56-1.64 5.11-2.65 7.59 1.39 1.18 2.79 2.35 4.2 3.52-2.73 2.63-5.94 4.81-8.31 7.79-1.17 3.52.66 6.98 1.78 10.24 6.29-7 14.82-11.36 22.36-16.82 5.76-3.47 10.92-7.86 16.8-11.1-.41-2.25-.8-4.5-1.08-6.76-2.22-.43-4.75-2.23-6.87-.68-3.6 2.31-7.24 4.55-11.01 6.59 1.86 1.59 3.61 3.33 4.83 5.48-3.07-.97-5.59-3.05-8.34-4.65-2.54-3.51-4.62-7.34-7.37-10.71m-9.17 23.04c1.71.74 3.75-2.76 1.67-3.45-1.4.19-2.4 2.25-1.67 3.45z"/><path d="M126.39 121c4.67-.05 9.52 1.15 12.98 4.45 1.2 1.86 1.29 4.12 1.47 6.26-2.37-1.46-3.75-3.96-5.89-5.67-2.73-1.88-5.77-3.24-8.56-5.04zM152.99 129.97c3.43-1.91 7.34-3.52 11.34-2.79-4.19 1.25-8.7 2.17-12.15 5.05-2.4 2.07-4.43 4.52-6.63 6.8.59 3.45.69 7.15-2.16 9.69.13-2.56.64-5.08.95-7.62-.66.55-1.99 1.64-2.66 2.19.78-1.96 1.57-3.92 2.28-5.91 3.2-2.24 5.57-5.51 9.03-7.41z"/><path d="M154.08 138.27c2.43-4.76 7.36-8.79 12.97-8.3-4.98 1.75-8.67 5.49-12.97 8.3zM152.3 144.27c3.31-6.29 10.47-8.52 16.73-10.64-1.07 1.66-2.06 3.61-4.15 4.11-4.51 1.54-8.47 4.2-12.58 6.53zM201.9 152.86c2.23 1.18 4.08 2.94 5.14 5.26-2.86-.27-3.95-3.08-5.14-5.26zM210.84 153.09c2.89 1.77 5.07 4.52 8.08 6.09 1.87.04 3.73-.22 5.59-.44-.08.91-.16 1.82-.23 2.73-2.23.09-4.62.74-6.73-.21-3.07-1.89-5.26-4.92-6.71-8.17zM114.05 157.25c.65-.69 1.29-1.38 1.93-2.07.41 3.49 1.19 6.93 1.62 10.42 3.51-2.4 7.05-4.82 10.91-6.63-.65 1.98-1.8 3.77-3.66 4.8-2.8 1.64-5.54 3.84-8.92 3.95-.55-3.5-1.18-6.99-1.88-10.47zM119.79 177.02c4.33-4.02 10-6.14 14.94-9.28-.26.76-.79 2.29-1.05 3.05-3.16 2.39-6.75 4.15-9.99 6.43-1.3-.03-2.6-.1-3.9-.2zM206.01 181.83c1.8-2.79 4.04-5.44 6.98-7.06-1.19 3.24-3.54 6.13-6.98 7.06zM165.2 189.76c.9-2.22 1.93-4.4 3.47-6.25-.04 2.55-.52 5.58-3.47 6.25z"/></g></svg>