<svg xmlns="http://www.w3.org/2000/svg" viewBox="-5.0 -11.8 301.2 213.6"><g fill="#000"><path d="M166.83 0h6.42c2.1.49 4.19 1.05 6.28 1.58l-.22 1.1c9.8-1.73 19.78-.52 29.64-1.64 5.15-.35 10.97-1.72 15.62 1.29 7.01 6.36 11.35 14.99 15.6 23.3 3.65.39 7.29.81 10.95 1.17 1.85-10.41 6.34-21.24 15.87-26.8h5.37c-2.29.62-4.61 1.46-6.38 3.11-5.71 6-10.37 13.31-11.82 21.59-1.6 7.74-.67 15.68-.65 23.52 3.56 4.9 5.69 10.86 10.29 14.97 5.53 5.52 14 5.2 21.2 6.33v1.9c-7.01-.02-13.9-1.53-20.55-3.65-2.57 3.6-6.44 5.9-9.48 9.05-4.03 4.06-8.4 7.75-12.91 11.27-6.77 6.2-13.55 12.4-20.61 18.27-9.85 7.81-18.14 17.31-27.71 25.43-11 9.32-21.95 18.7-32.57 28.45-1.84 1.32-3.57 3.56-5.98 3.57.67-2.73 3.65-4.18 5.52-6.11 17.68-15.6 35.13-31.45 52.87-46.98 9.4-7.59 18.24-15.82 27.17-23.95 8.12-6.08 14.93-13.75 23.23-19.61-1.6-1.55-3.18-3.13-4.73-4.72-.2.44-.61 1.32-.81 1.76-2.98 1.87-5.69 4.13-8.19 6.6.28 1.43.56 2.87.86 4.3-3.04 2.2-6.14 4.9-10.16 4.62-4.34 3.41-8.79 6.68-13.11 10.1-7.62 7.42-15.67 14.37-23.71 21.32-10.27 10.12-21.47 19.22-32.02 29.03-6.62 6.55-14.5 11.76-20.62 18.8 1.73 2.76 2.66 5.96 2.96 9.18-1.27 3.76-4.51 6.47-8 8.14-3.11-.85-6.34-1.05-9.47-1.79-3.97-1.35-7.08-4.27-10.51-6.56-4.42-2.64-9.72-1.26-14.54-2.08-7.27-1.61-13.72-5.57-19.43-10.23-3.19-2.79-8.24-2.76-10.56-6.6-2.23-3.25-4.65-6.37-7.06-9.5-.67.73-1.33 1.47-1.99 2.21-7.22-4-12.46-10.59-18.89-15.64-12.25-9.71-23.49-20.6-35.72-30.33-4.96-4.18-8.37-9.82-12.16-15 2.41-2.66 5.96-5.41 9.73-4.33 3.94 2.16 7.35 5.16 11.05 7.69-.48-3-1.38-6.25.15-9.11 2.52-5.79 5.8-12.39 12.27-14.46 8.23-2.28 16.19 2.09 23.12 6.04 3.25 1.77 5.88 4.49 7.42 7.86-1.21 2.83-2.66 5.58-3.43 8.58.25 2.25 1.01 4.41 1.54 6.6 3.01-.18 5.97-.92 8.98-.96 3.19 1.03 6.07 2.95 9.46 3.36 4.43.62 8.75 2.49 11.96 5.65 2.06 2.19 2.59 5.26 3.3 8.07 1.71 1.63 3.23 3.48 3.58 5.92 1.5-3.05 2.59-6.28 4.07-9.34.74-2.01 3.18-2.11 4.87-2.86-.01-.53-.04-1.59-.05-2.12 3.37-6.16 9.88-9.95 12.57-16.53 1.2-2.74 2.01-5.92 4.72-7.61 4.5-3.04 9.8-4.61 14.62-7.02 6.56-4.47 12.93-9.3 19.93-13.08 3.56-2.96 5.22-7.51 8.13-11.03a19.44 19.44 0 004.04-7.95c-.81-2.99-.33-6.11.34-9.08.75-2.91 4.29-6.09 7.17-3.58 4.93 2.32 5.21 8.16 6.78 12.68 1.43 3.49-1.13 6.69-2.3 9.82-1.79 3.61-.63 7.71-.55 11.52 3.32-4.67 5.99-9.79 9.71-14.17 2.72-2.97 4.12-7.21 3.03-11.18-.62-2.64-1.85-6.06 1.09-7.8 2.04-1.92 4.28.79 5.79 2.04 3.06.61 6.57 1.1 8.63 3.74 2.86 5.04 3.04 11.31 1.04 16.7-1.99 5.21-2.48 10.77-3.22 16.24-.54 2.36-1.75 5.59-4.61 5.66-2.74-.11-5.36-.98-8.02-1.51-3.85 4.06-8.56 7.42-11.43 12.31-2.6 4.3-5.81 8.37-10 11.22-6.13 3.69-13.17 6.39-17.66 12.24-2.99 3.03-3.19 7.49-4.7 11.26-2.1 5.16-5.22 9.83-8.39 14.38.23 2.05.18 4.12-.31 6.13-6.04 4.63-8.46 12.23-12.4 18.46 3.23-1.07 6.89-2.11 9.85.22 7.77-7.47 16.44-13.9 24.55-20.98 9.09-8.6 18.42-16.94 27.89-25.13 10.24-9.8 20.93-19.09 31.72-28.28-4.78-1.17-9.3-3.34-14.22-3.93-4.31-.78-8.69-1.17-12.94-2.25-1.88-.29-3.14-1.76-4.18-3.22 5.8.63 11.51 1.88 17.28 2.71 8.1 2.13 15.95 5.14 24.08 7.15 2.97.8 5.18-2.08 7.46-3.51-.85-7.35-1.39-14.74-2.44-22.07-1.25-7.95-5.76-14.78-7.98-22.43-3.85-9.1-8.44-18.2-15.63-25.16-2.45-2.6-6.37-1.7-9.54-1.66-11.72 1.15-23.5 1.1-35.23 1.91-4.22.07-8.13 1.73-11.68 3.89C178.06 7.47 189 6.15 200 6.56c5.78.17 11.6-.62 17.35.31-4.69 2.6-10.24 1.58-15.35 1.55-11.08-.72-22.1 1.22-33.19.95-.78-.24-2.34-.73-3.12-.97 1.67 6.57 5.72 12.21 7.58 18.71.8 2.95.38 6.03.29 9.04-2.4-8.33-5.45-16.5-9.2-24.31-.7-1.59-1.31-3.94.49-5.04 3.75-2.75 8.76-2.69 13.06-4.05-5.48-1.39-11.98-2.11-16.82 1.45-4.52 4.29-8.58 9.45-10.1 15.6-1.83 6.63-1.19 13.56-.76 20.32 2.63 4.09 5.37 8.11 8.36 11.96-.82-.08-1.82.54-2.51-.13-3.46-2.85-5.42-7.07-6.77-11.24-3.5-9.84-2.11-21.19 3.16-30.14 3.12-5.31 8.34-9.21 14.36-10.57m14.52 22.93c.81 1.59 1.63 3.18 2.38 4.8-1.67.09-2.64-1.06-3.38-2.39-.22 2.54-1.01 5.04-.75 7.6 1.13 5.84-4.03 9.92-6.84 14.37-.97 2.35-2.5 4.4-3.81 6.56-10.11 4.58-17.8 13.38-28.41 16.93-2.31 1.46-4.72 2.7-7.32 3.53-2.58.77-3.16 3.69-4.18 5.82-2.69 7.15-9.1 11.75-13.44 17.8.46.57.93 1.14 1.41 1.71 4.95.59 7.79 5.11 12.04 7.12 1.33-.56 2.13-1.72 2.71-2.98 1.78-3.59 4.49-6.62 6.18-10.26-4.08 1.52-7.72 3.93-11.36 6.27 2.22-3.23 5.42-5.55 9.04-6.98 3.45-1.17 5.08-4.61 7.23-7.23-.58.11-1.74.34-2.31.45-.67-1.56-1.2-4.07-3.41-3.93-3.28-.62-5.88 1.91-7.88 4.13-1.37 2.82-1.83 6.47-5.1 7.79 1.91-5.25 4.37-11.45 9.89-13.78 3.18-1.49 6.34.67 8.37 2.99l-1.21 1.06c4.76.43 8.11-3.34 11.75-5.73 3.58-1.88 7.17-3.76 10.9-5.34 4.54-2.81 7.3-7.6 11.69-10.6 4.14-3.44 9.6-4.55 13.9-7.75l-1.8-.29c-.35-2.17-.9-4.32-1.08-6.51.5-4.61 3.51-8.52 4.04-13.11-1.32-2.89-2.96-5.73-3.08-8.99-1.71-1.55-3.51-4.17-6.17-3.06m22.21 1.01c-.23 2 .04 4 .16 6 1.7 2.52.58 5.59.56 8.4-1.69 2.28-3.54 4.43-5.41 6.56-2.34 3.08-3.75 6.76-5.98 9.92-3.38 3.15-8.19 4.23-11.48 7.54-5.17 3.84-9.96 8.14-14.9 12.22-4.14 1.3-7.8 3.52-11.69 5.38-3.68.94-4.77 4.97-6.97 7.58-.08-.78-.25-2.33-.34-3.11-2.28 1.8-4.67 3.71-5.68 6.56-2.16 5.7-6.76 9.9-9.87 15.04 3.76 1.65 7.2 3.91 10.67 6.07 1.04-2.33 1.84-4.85 3.54-6.82 2.6-3.15 6.25-5.17 9-8.17 2.82-2.61 4.56-6.26 7.82-8.4-.82 4.47-4.63 7.56-7.32 11-4.25 3.47-6.58 8.52-8.85 13.38-.57-.95-1.14-1.88-1.73-2.8l-.92 3.25c1.56 3.3 2.68 6.78 3.1 10.41.86.59 1.73 1.18 2.61 1.77 3.09-5.95 7.8-11.61 7.39-18.73-.26-5.99 3.28-11.82 8.42-14.77-.43 2.87-2.87 4.58-4.37 6.85-.98 1.6-1.58 3.38-2.25 5.11 2.65-3.7 5.54-7.25 8.97-10.25 4.42-3.5 9.74-5.54 14.48-8.53 4.83-3.56 7.74-8.95 11.13-13.76 2.41-2.84 5.61-5.03 7.37-8.39 2.98-1.13 5.91.72 8.92.65 1.28-.16 3.53-.13 3.5-1.95.83-6.07 1.29-12.27 3.4-18.08 1.35-3.39 1.35-7.16.89-10.74-.59-3.65-3.98-5.74-6.82-7.59-.88 1.29-1.75 2.59-2.62 3.89 1.82 2.23 4.27 3.68 7.02 4.49.15.66.44 2 .59 2.66-2.84-1.35-4.42-5.17-7.93-4.83-.58-1.25-1.19-2.49-1.79-3.73.7-.94 1.4-1.89 2.1-2.84-1.55-.44-3.04-1.57-4.72-1.24m37.32 3.79c.72 1.71 1.48 3.4 2.25 5.08 2.52.17 5.02.45 7.53.71.04-1.53.08-3.06.13-4.59-3.29-.5-6.6-.87-9.91-1.2m3.39 7.27c2.98 8.6 5.5 17.48 5.53 26.66 1.88-1.59 3.78-3.2 5.95-4.4.01 3.26-3.49 4.51-5.49 6.45.24 1.55.46 3.09.68 4.65 2.59-2.39 5.18-4.79 7.55-7.39-5.46-7.27-7.59-16.55-7.9-25.49-2.1-.17-4.21-.33-6.32-.48M29.86 71.32c-.72 3.47-2.4 6.93-1.49 10.54.19 4.48 4.27 7.17 7.62 9.43 3.35.53 6.88.19 9.97 1.89 5.03 1.63 6.85 7.26 7.31 12.01.36 4.86 4.86 7.65 7.92 10.86-.51-5.96 1.01-13.04 6.2-16.61.66-.78 3.66-.14 1.88.95-5.65 3.65-6.11 10.83-6.58 16.89 1.96 2.19 5.08 3.66 5.71 6.76.89 3.63 2.65 6.95 4.42 10.21 2.19 4.12 7.05 5.9 9.32 9.96 1.46 2.1 2.13 5.15 4.97 5.8 6.61 2.46 10.96 8.75 17.8 10.82 5.15 2.36 10.96.92 16.27 2.56 4.16 1.3 8.58 2.52 11.71 5.74 1.83 2.03 4.52 2.53 7.1 2.89 2.1 1.21 4.56 1.29 6.89 1.66 3.08-2.35 6.93-6.04 4.54-10.24-1.17-4.82-6.76-5.18-9.6-8.48 2.44-.02 4.17-1.66 5.79-3.24-4.61.95-9.68.77-13.8 3.34-4.73 2.96-10.18-.23-14.7-2.09-8.07-3.11-13.41-10.47-21.16-14.14-2.61-1.57-6.03-2.71-7.1-5.86 2.43 1.11 4.66 2.58 6.93 3.97-.47-2.29-.61-4.76-1.96-6.75-2.96-4.78-4.5-10.24-7.27-15.11-.35.12-1.05.35-1.39.47-.48 1.29-.92 2.62-1.83 3.68.5-3.39 1.87-6.77 1.1-10.23-1.83-5.06-5.12-10.16-10.45-11.97-2.18.05-4.15 1.16-6.22 1.72.71-3.46 5.65-5.22 8.44-3.04 3.75 2.07 6.77 5.42 8.52 9.32 1.34 2.69.34 6.19 2.62 8.47 1.92 2.24 3.24 4.89 4.87 7.33 1.1 0 2-.5 2.7-1.52-.04-1.47-.07-2.94-.09-4.4 1.02.59 2.02 1.21 3.02 1.84 1.66-1.32 3.4-2.53 5.06-3.84-1.09-2.64-3.2-4.51-5.07-6.56-1-2.4-1.13-5.26-3.12-7.16-3.57-3.58-8.65-5.24-13.58-5.82-3.21-.23-5.74-3.62-9.03-2.6-2.45.97-4.95.3-7.39-.28-.5-2.78-1.52-5.53-1.36-8.39.62-2.69 2.24-5.09 2.51-7.86-2.19-4.22-6.74-6.22-10.73-8.32-4.75-2.18-9.64-4.96-15.07-4.21-5.67.35-9.06 5.52-12.2 9.61m188.08 20.54c-11.45 10.58-23.13 20.89-34.72 31.31-11.94 11.38-25.06 21.42-37.51 32.2 1.32.79 2.64 1.58 3.97 2.36 12.97-11.37 25.63-23.09 38.66-34.4 7.61-6.67 14.37-14.3 22.42-20.46 9.64-7.84 18.34-16.78 28.42-24.08-1.48-.49-2.96-.97-4.44-1.44-4.94 5.56-11.03 9.9-16.8 14.51M8.37 80.05c3.66 5.65 7.3 11.56 12.69 15.74 4.28 3.41 8.41 6.99 12.47 10.65 12.62 11.3 26.26 21.41 38.57 33.07.38-.46.75-.92 1.13-1.38-3.62-3.91-6.09-9.3-6.08-14.69-6.66-4.71-12.09-10.86-18.19-16.23-7.98-7.06-15.21-14.95-23.47-21.69-3.02-1.93-5.61-4.43-8.53-6.47-2.84-1.81-5.87-.09-8.59 1m30 14.38c4.42 4.39 8.65 9.02 13.51 12.95-.27-2.82-.62-5.71-1.9-8.28-1.09-3.06-4.37-4.2-6.85-5.84-1.58.42-3.17.81-4.76 1.17m72.06 11.21c-1.14 3.11-3.24 5.83-3.92 9.11-2.76 1.22-5.64 2.17-8.35 3.5 1.76 1.06 3.52 2.13 5.24 3.25l.68-1.95c1.57 2.29-.67 2.28-2.44 2.43-.23 2.6-2.31 4.24-4.57 5.12.94-1.48 1.98-2.89 2.88-4.4-.44-1.21-1.1-2.31-1.75-3.42a16.22 16.22 0 01-2.93 3.04c-.13.32-.4.97-.53 1.3 1.97 4.4 5.4 8.43 4.58 13.6 3.15 2.11 6.09 4.53 9.33 6.51 2.02-2.67 5.18-5.05 4.9-8.77-1.54 2.22-3 4.54-5.17 6.23-1.4.22-2.23-1.8-.39-2.2 2.18-1.58 2.61-4.41 3.6-6.74-1.15-3.51-2.71-6.87-3.61-10.46 2.42 2.16 4.24 4.96 5.12 8.08.86 3.23 3.32 6.19 2.37 9.72.49-.18 1.48-.55 1.97-.73.42-2.31.45-5.5 3.39-5.96-1.23 2.83-2.62 5.62-4.41 8.15-.44-.5-.88-1-1.32-1.49-1.18 2.26-2.82 4.22-4.64 6 2.71 1.99 5.45 4 8.66 5.12 3.84 1.36 7.71 3.39 11.88 3.2 3.93-.48 5.89-4.22 7.47-7.39 2.14-5.19 5.68-9.6 9.12-13.97 1.5-1.72.53-4.08.4-6.08-.59-.16-1.78-.49-2.38-.66-.89-4.77-2.54-9.72-6.58-12.75-3.34-2.33-6.82-5.37-11.18-4.94.01 4.84-4.29 7.75-5.88 11.97-.39.07-1.17.22-1.56.29 1.54-4.28 4.23-7.97 6.44-11.9-3.75-3.45-8.2-8.2-13.87-6.32-1.82.13-1.84 2.26-2.55 3.51m35.34 4.19c.34.01 1.02.02 1.36.03.62-1.41 1.56-2.87 1.59-4.43-1.65.37-3.01 2.69-2.95 4.4z"/><path d="M269.51 5.56c1.15-1.23 2.93-1.08 4.46-1.33-2.75 3.42-6.21 6.3-8.22 10.27-5.37 10.02-6.13 21.98-3.95 33 1.5 7.21 6.2 13.03 10.74 18.59-3.48.36-5.53-2.74-7.3-5.18-6.93-11.01-8.34-24.88-5.44-37.39 1.78-6.59 4.41-13.38 9.71-17.96zM218.28 8.25c4.19 2.85 5.94 7.87 8.66 11.94 3.26 4.97 4.79 10.77 7.75 15.89 2.37 5.34 4.32 10.99 4.6 16.87.3 6.39 1.29 12.74 1.31 19.15-2.27-1.1-1.47-3.92-1.85-5.96-.13-6.15-2.01-12.05-3.02-18.08-.89-5.42-3.44-10.35-5.84-15.23-3.62-8.31-7.87-16.33-11.61-24.58zM278.75 29.55c2.08.05 4.16.11 6.25.18v1.92c-1.72-.04-3.43-.08-5.14-.11-.76 2.94-1.5 6.1-.27 9.03 1.75.56 3.6.77 5.41 1.08v1.91c-2.29-.33-5.15.14-6.85-1.76-2.28-3.84-.99-8.41.6-12.25zM179 45.5c1.44-5.63 5.37-10.49 4.91-16.58 2.11 2.06 2.15 5.52.69 7.95-1.65 3-3.12 6.21-5.6 8.63zM205.81 49.84c3.08-3.89 6.44-7.57 8.78-11.97-1.51 4.72-2.82 11.29-8.78 11.97zM182.78 53.43l1.8.16c-.47 1.18-.95 2.36-1.41 3.54a24.101 24.101 0 01-7.92 2.28c.31-3.02 3.89-2.29 5.96-3.04.52-.98 1.05-1.96 1.57-2.94zM161.06 61.48c2.94-2.74 6.38-4.92 10.1-6.43-1.78 3.97-6.3 5.22-10.1 6.43zM204.2 56.82c1.7-.64 3.39-1.31 5.12-1.88-.2 2.78-3.06 2.53-5.08 2.8l-.04-.92zM186.54 65.58c2.44-2.12 4.48-4.69 7.17-6.53.23 2.17-1.47 3.56-2.76 4.96-3.52 3.89-8.32 6.27-12.02 9.96-2.18 2.16-4.6 4.07-7.11 5.83-1.29 3.74-3.66 7.08-7.04 9.21 1.36-4.08 4.89-7.12 5-11.67.64.46 1.29.92 1.94 1.39 3.77-5.5 9.68-9.04 14.82-13.15zM190 67.9c2.82-2.06 4.57-5.44 7.92-6.78-1.51 3.82-4.64 6.67-7.89 9.02-3.29 2.36-5.96 5.89-10.11 6.77 3.07-3.3 6.39-6.39 10.08-9.01zM152.49 70.38c4.01-2.87 8.41-6.05 13.57-5.93-3.74 1.81-7.74 3.18-11.12 5.65-2.5 1.89-3.44 5.55-6.54 6.65-1.05-3.06 2.15-4.71 4.09-6.37zM140.28 75.09c1.51-.85 3.37-2.15 4.59-.13-1.4 1.39-2.74 2.84-4.16 4.21-.16-1.36-.3-2.72-.43-4.08zM171.88 85.95c5.41-2.15 10.08-5.61 15.22-8.24-3.37 5.69-9.95 7.68-15.81 9.69.15-.36.44-1.09.59-1.45zM42.14 81.05c.97 1.17 1.9 2.36 2.83 3.56 2.34.29 4.88 1.11 7.09-.1 3.69-2.35 8.27-1.36 12.17-3.21-2.02 5.17-8.43 1.98-11.86 5.37-.24.43-.72 1.28-.96 1.71 4.31 1.19 10.68.94 12.81 5.65-4.75-1.52-9.47-3.1-14.32-4.28l1.68-.68c-.57-.47-1.14-.93-1.72-1.38-2.28-.13-5.1.17-6.77-1.75-1.23-1.32-.82-3.25-.95-4.89zM156.17 83.3c2.86-.59 2.81 1.9 2.75 4.04-1.17-1.16-2.05-2.56-2.75-4.04zM148.99 88.83c2.45-.33 5.23-.92 7.24.98 1.67.72.98 2.64 1.06 4.02-1.55-1.15-2.99-2.42-4.4-3.73-1.75.28-3.48.65-5.19 1.11v-.86c.32-.38.97-1.14 1.29-1.52zM138.7 98.9c2.1-3.04 5.03-5.55 8.43-7.03-1.06 3.82-5.16 5.53-8.43 7.03zM89.49 110.75c1.68-3.15 5.37-3.47 8.49-4.12-.14.43-.41 1.28-.55 1.7-2.5 1.22-5.26 1.75-7.94 2.42zM106.24 115.89c2.97.24 2.22 3.33 2.44 5.26-1.49-1.39-2.44-3.15-2.44-5.26zM68.22 119.6c3.92-1.71 9.45.57 11.04 4.54-2.47-.8-4.69-2.26-7.22-2.91-1.32-.43-2.92-.42-3.82-1.63zM71.36 127.64c1.34 1.25 2.58 2.59 3.72 4.03.5-.65 1.01-1.29 1.51-1.93.64-.26 1.91-.77 2.55-1.02 3.27 2.62 5.79 7.15 4.26 11.35-2.27-2.71-2.93-6.26-4.43-9.38-1.78.84-3.54 1.7-5.25 2.67a22.864 22.864 0 01-2.36-5.72zM85.94 144.25c4.46 2.72 9.6 1.09 14.43 1.86l1.03 1.62c-3.47-.05-6.94.13-10.41.17-2.25-.03-4.53-1.34-5.05-3.65zM144.17 162.66c.43.01 1.28.02 1.7.03-.87 3.37-4.05 5.23-6.64 7.21-.07-3.26 3.52-4.65 4.94-7.24zM182.05 164.57c4.48-.26 8.67-2.27 13.2-2.09-3.7 3.09-8.89 2.73-13.36 3.67-8.6.66-16.67 4.32-25.3 4.65 2.83-2.48 6.88-2.65 10.37-3.66 5-.99 10-2.13 15.09-2.57zM175.9 176.27c5.75-.69 11.48-2.23 17.3-1.63-15.56 3.88-31.6 5.55-47.3 8.79-5.43 1.22-11.03 1.57-16.3 3.46-5.76 1.36-11.62 2.24-17.43 3.41 3.23-2.19 7.1-2.98 10.68-4.42 5.55-2.1 11.57-2.09 17.28-3.52 11.75-2.99 23.92-3.64 35.77-6.09z"/></g></svg>